<svg xmlns="http://www.w3.org/2000/svg" xmlns:xlink="http://www.w3.org/1999/xlink" viewBox="0 0 94.34 96.2"><defs><style>.cls-1{fill:url(#radial-gradient);}.cls-2{fill:#0075be;}.cls-3{fill:url(#Sky);}.cls-4{opacity:0.42;fill:url(#radial-gradient-2);}.cls-5{fill:url(#linear-gradient);}.cls-6{fill:url(#linear-gradient-2);}.cls-7{opacity:0.95;}.cls-8{fill:#336;}.cls-9{fill:#ffeb99;}.cls-10{fill:#fff;}.cls-11{fill:url(#linear-gradient-3);}</style><radialGradient id="radial-gradient" cx="47.2" cy="71.97" fx="-0.21908044724545306" fy="45.40690912387008" r="54.35" gradientUnits="userSpaceOnUse"><stop offset="0.33" stop-color="#66acd8"/><stop offset="0.35" stop-color="#60a9d6"/><stop offset="0.43" stop-color="#479cd0"/><stop offset="0.51" stop-color="#3894cc"/><stop offset="0.57" stop-color="#3391cb"/><stop offset="0.71" stop-color="#3379a5"/></radialGradient><linearGradient id="Sky" x1="12.55" y1="71.69" x2="86.35" y2="24.94" gradientUnits="userSpaceOnUse"><stop offset="0" stop-color="#cce0f4"/><stop offset="0.06" stop-color="#c3dcf2"/><stop offset="0.17" stop-color="#a9d2ee"/><stop offset="0.31" stop-color="#80c2e7"/><stop offset="0.46" stop-color="#47acde"/><stop offset="0.57" stop-color="#1e9cd7"/><stop offset="0.87" stop-color="#0075be"/><stop offset="0.99" stop-color="#005b97"/></linearGradient><radialGradient id="radial-gradient-2" cx="47.14" cy="37.01" fx="25.528116204060808" r="39.47" gradientTransform="translate(0 2.73) scale(1 0.93)" gradientUnits="userSpaceOnUse"><stop offset="0" stop-color="#ff0"/><stop offset="1" stop-color="#8cc63f"/></radialGradient><linearGradient id="linear-gradient" x1="39.88" y1="72.42" x2="62.44" y2="78.34" gradientUnits="userSpaceOnUse"><stop offset="0.33" stop-color="#cce0f4"/><stop offset="0.36" stop-color="#c3dcf2"/><stop offset="0.4" stop-color="#a9d2ee"/><stop offset="0.46" stop-color="#80c2e7"/><stop offset="0.52" stop-color="#47acde"/><stop offset="0.57" stop-color="#1e9cd7"/></linearGradient><linearGradient id="linear-gradient-2" x1="15.04" y1="60.31" x2="28.97" y2="83.45" gradientUnits="userSpaceOnUse"><stop offset="0" stop-color="#cce0f4"/><stop offset="0.33" stop-color="#cadff4"/><stop offset="0.44" stop-color="#c3ddf3"/><stop offset="0.53" stop-color="#b8d8f1"/><stop offset="0.59" stop-color="#a7d1ee"/><stop offset="0.65" stop-color="#91c9ea"/><stop offset="0.7" stop-color="#75bee6"/><stop offset="0.75" stop-color="#55b2e0"/><stop offset="0.79" stop-color="#31a3da"/><stop offset="0.81" stop-color="#1e9cd7"/><stop offset="0.87" stop-color="#0075be"/><stop offset="0.99" stop-color="#005b97"/></linearGradient><linearGradient id="linear-gradient-3" x1="14.94" y1="65.61" x2="18.74" y2="71.52" gradientUnits="userSpaceOnUse"><stop offset="0" stop-color="#fc0"/><stop offset="1" stop-color="#fff3c3"/></linearGradient></defs><g id="Layer_4" data-name="Layer 4"><path class="cls-1" d="M47.2,93.85A43.75,43.75,0,0,0,91,50.1H3.45A43.75,43.75,0,0,0,47.2,93.85Z"/><path class="cls-2" d="M16.27,67.6c-17-9.82-17-25.89,0-35.71s44.83-9.83,61.84,0,17,25.89,0,35.71S33.27,77.42,16.27,67.6Z"/><path class="cls-3" d="M16.27,67.6c-17-9.82-17-25.89,0-35.71s44.83-9.83,61.84,0,17,25.89,0,35.71S33.27,77.42,16.27,67.6Z"/><path class="cls-4" d="M3.49,46.1c-.16,6.59,4.08,13.21,12.74,18.21,17,9.82,44.83,9.82,61.84,0,8.66-5,12.9-11.62,12.74-18.21h.08a43.75,43.75,0,0,0-87.5,0Z"/><path class="cls-5" d="M19,59.71c-3.5-2-6.36-.32-6.36,3.67A13.82,13.82,0,0,0,19,74.22c3.5,2,6.36.32,6.36-3.67A13.8,13.8,0,0,0,19,59.71Z"/><path class="cls-6" d="M19,59.71c-3.5-2-6.36-.32-6.36,3.67A13.82,13.82,0,0,0,19,74.22c3.5,2,6.36.32,6.36-3.67A13.8,13.8,0,0,0,19,59.71Z"/><g class="cls-7"><path class="cls-8" d="M18.54,63.5c-1.93-1.09-3.51-.18-3.51,2a7.63,7.63,0,0,0,3.52,6c1.93,1.09,3.51.18,3.51-2A7.63,7.63,0,0,0,18.54,63.5Z"/><path class="cls-8" d="M18.54,63.5c-1.93-1.09-3.51-.18-3.51,2a7.63,7.63,0,0,0,3.52,6c1.93,1.09,3.51.18,3.51-2A7.63,7.63,0,0,0,18.54,63.5Z"/></g><path class="cls-9" d="M17,64.54c-1.94-1.09-3.52-.18-3.51,2a7.63,7.63,0,0,0,3.51,6c1.93,1.09,3.51.18,3.51-2A7.6,7.6,0,0,0,17,64.54Z"/><path class="cls-10" d="M17,64.54c-1.94-1.09-3.52-.18-3.51,2a7.63,7.63,0,0,0,3.51,6c1.93,1.09,3.51.18,3.51-2A7.6,7.6,0,0,0,17,64.54Z"/><path class="cls-11" d="M17,65.45c-1.93-1.09-3.52-1.1-3.51,1.1a7.63,7.63,0,0,0,3.51,6c1.93,1.09,3.51.18,3.51-2S18.89,66.54,17,65.45Z"/></g></svg>