<svg xmlns="http://www.w3.org/2000/svg" xmlns:xlink="http://www.w3.org/1999/xlink" viewBox="0 0 103.61 96.2"><defs><style>.cls-1{opacity:0.95;}.cls-2{fill:url(#linear-gradient);}.cls-3{fill:url(#radial-gradient);}.cls-4{fill:#0075be;}.cls-5{fill:url(#Sky);}.cls-6{opacity:0.42;fill:url(#radial-gradient-2);}.cls-7{fill:#336;}.cls-8{fill:#ffeb99;}.cls-9{fill:#fff;}.cls-10{fill:url(#linear-gradient-2);}</style><linearGradient id="linear-gradient" x1="41.66" y1="82.3" x2="130.19" y2="22.67" gradientUnits="userSpaceOnUse"><stop offset="0.1" stop-color="#00426b"/><stop offset="0.21" stop-color="#0d4e67" stop-opacity="0.93"/><stop offset="0.38" stop-color="#306f5c" stop-opacity="0.74"/><stop offset="0.59" stop-color="#69a54a" stop-opacity="0.43"/><stop offset="0.71" stop-color="#8cc63f" stop-opacity="0.24"/><stop offset="0.72" stop-color="#8cc63f" stop-opacity="0.23"/><stop offset="0.83" stop-color="#8cc63f" stop-opacity="0.1"/><stop offset="0.92" stop-color="#8cc63f" stop-opacity="0.03"/><stop offset="1" stop-color="#8cc63f" stop-opacity="0"/></linearGradient><radialGradient id="radial-gradient" cx="45.61" cy="71.83" fx="-1.814367471527241" fy="45.262369388870226" r="54.35" gradientUnits="userSpaceOnUse"><stop offset="0.33" stop-color="#66acd8"/><stop offset="0.35" stop-color="#60a9d6"/><stop offset="0.43" stop-color="#479cd0"/><stop offset="0.51" stop-color="#3894cc"/><stop offset="0.57" stop-color="#3391cb"/><stop offset="0.71" stop-color="#3379a5"/></radialGradient><linearGradient id="Sky" x1="10.96" y1="71.54" x2="84.75" y2="24.8" gradientUnits="userSpaceOnUse"><stop offset="0" stop-color="#cce0f4"/><stop offset="0.06" stop-color="#c3dcf2"/><stop offset="0.17" stop-color="#a9d2ee"/><stop offset="0.31" stop-color="#80c2e7"/><stop offset="0.46" stop-color="#47acde"/><stop offset="0.57" stop-color="#1e9cd7"/><stop offset="0.87" stop-color="#0075be"/><stop offset="0.99" stop-color="#005b97"/></linearGradient><radialGradient id="radial-gradient-2" cx="45.54" cy="36.87" fx="23.93282917977902" r="39.47" gradientTransform="translate(0 2.72) scale(1 0.93)" gradientUnits="userSpaceOnUse"><stop offset="0" stop-color="#ff0"/><stop offset="1" stop-color="#8cc63f"/></radialGradient><linearGradient id="linear-gradient-2" x1="13.34" y1="65.47" x2="17.14" y2="71.37" gradientUnits="userSpaceOnUse"><stop offset="0" stop-color="#fc0"/><stop offset="1" stop-color="#fff3c3"/></linearGradient></defs><g id="Layer_4" data-name="Layer 4"><g class="cls-1"><path class="cls-2" d="M24.68,56.86c-16.91,8.38-16.91,22.45,0,31.25s45.29,8.81,63.06,0,17.76-22.87,0-31.25S41.6,48.47,24.68,56.86Z"/></g><path class="cls-3" d="M45.61,93.7A43.75,43.75,0,0,0,89.36,50H1.86A43.74,43.74,0,0,0,45.61,93.7Z"/><path class="cls-4" d="M14.67,67.46c-17-9.82-17-25.89,0-35.72s44.84-9.82,61.85,0,17,25.9,0,35.72S31.68,77.28,14.67,67.46Z"/><path class="cls-5" d="M14.67,67.46c-17-9.82-17-25.89,0-35.72s44.84-9.82,61.85,0,17,25.9,0,35.72S31.68,77.28,14.67,67.46Z"/><path class="cls-6" d="M1.89,46C1.73,52.54,6,59.16,14.63,64.16c17,9.83,44.84,9.83,61.84,0,8.66-5,12.9-11.62,12.74-18.21h.08a43.75,43.75,0,0,0-87.5,0Z"/><path class="cls-4" d="M17.44,59.56c-3.5-2-6.37-.32-6.36,3.67a13.83,13.83,0,0,0,6.37,10.85c3.49,2,6.35.32,6.35-3.68A13.79,13.79,0,0,0,17.44,59.56Z"/><path class="cls-4" d="M17.44,59.56c-3.5-2-6.37-.32-6.36,3.67a13.83,13.83,0,0,0,6.37,10.85c3.49,2,6.35.32,6.35-3.68A13.79,13.79,0,0,0,17.44,59.56Z"/><g class="cls-1"><path class="cls-7" d="M17,63.35c-1.94-1.08-3.52-.17-3.51,2a7.63,7.63,0,0,0,3.51,6c1.93,1.09,3.51.18,3.51-2A7.63,7.63,0,0,0,17,63.35Z"/><path class="cls-7" d="M17,63.35c-1.94-1.08-3.52-.17-3.51,2a7.63,7.63,0,0,0,3.51,6c1.93,1.09,3.51.18,3.51-2A7.63,7.63,0,0,0,17,63.35Z"/></g><path class="cls-8" d="M15.36,64.39c-1.93-1.09-3.51-.18-3.51,2a7.63,7.63,0,0,0,3.52,6c1.93,1.09,3.51.18,3.51-2A7.63,7.63,0,0,0,15.36,64.39Z"/><path class="cls-9" d="M15.36,64.39c-1.93-1.09-3.51-.18-3.51,2a7.63,7.63,0,0,0,3.52,6c1.93,1.09,3.51.18,3.51-2A7.63,7.63,0,0,0,15.36,64.39Z"/><path class="cls-10" d="M15.36,65.31c-1.93-1.09-3.51-1.11-3.51,1.1a7.63,7.63,0,0,0,3.52,6c1.93,1.09,3.51.18,3.51-2S17.3,66.39,15.36,65.31Z"/></g></svg>