<?xml version="1.0" encoding="utf-8"?>
<!-- Generator: Adobe Illustrator 25.4.1, SVG Export Plug-In . SVG Version: 6.00 Build 0)  -->
<svg version="1.1" xmlns="http://www.w3.org/2000/svg" xmlns:xlink="http://www.w3.org/1999/xlink" x="0px" y="0px"
	 viewBox="0 0 103.61 96.2" style="enable-background:new 0 0 103.61 96.2;" xml:space="preserve">
<style type="text/css">
	.st0{display:none;}
	.st1{display:inline;}
	.st2{fill:#1B1464;}
	.st3{fill:#8CC63F;stroke:#000000;stroke-miterlimit:10;}
	.st4{fill:#006837;stroke:#000000;stroke-miterlimit:10;}
	.st5{fill:#006837;}
	.st6{fill:none;stroke:#000000;stroke-miterlimit:10;}
	.st7{fill:#8CC63F;}
	.st8{fill:#66ACD8;}
	.st9{fill:#0075BE;}
	.st10{opacity:0.42;fill:#39B54A;}
	.st11{opacity:0.67;}
	.st12{fill:#FFEB99;}
	.st13{fill:url(#SVGID_1_);}
	.st14{opacity:0.42;fill:url(#SVGID_00000064313452743681206700000003094444651353869728_);}
	.st15{fill:#FFFFFF;}
	.st16{fill:url(#SVGID_00000028326773749137797930000014591816018786669189_);}
	.st17{opacity:0.42;fill:url(#SVGID_00000145053895567401648550000002054328549042816167_);}
</style>
<g id="Guides" class="st0">
</g>
<g id="Layer_2">
</g>
<g id="Layer_4">
	<g>
		<path class="st2" d="M24.68,56.86c-16.92,8.39-16.92,22.45,0,31.26s45.29,8.8,63.05,0s17.76-22.87,0-31.26S41.6,48.47,24.68,56.86
			z"/>
	</g>
	<radialGradient id="SVGID_1_" cx="45.6059" cy="71.8281" r="54.6542" fx="-2.0757" fy="45.116" gradientUnits="userSpaceOnUse">
		<stop  offset="0.3308" style="stop-color:#66ACD8"/>
		<stop  offset="0.3557" style="stop-color:#60A9D6"/>
		<stop  offset="0.4706" style="stop-color:#479BD0"/>
		<stop  offset="0.576" style="stop-color:#3893CC"/>
		<stop  offset="0.6624" style="stop-color:#3391CB"/>
	</radialGradient>
	<path class="st13" d="M45.61,93.7c24.16,0,43.75-19.59,43.75-43.75H1.86C1.86,74.12,21.44,93.7,45.61,93.7z"/>
	<g>
		<path class="st9" d="M14.67,67.46c-17.01-9.82-17.01-25.89,0-35.71s44.84-9.82,61.84,0s17.01,25.9,0,35.71
			S31.68,77.28,14.67,67.46z"/>
		<path class="st9" d="M14.67,67.46c-17.01-9.82-17.01-25.89,0-35.71s44.84-9.82,61.84,0s17.01,25.9,0,35.71
			S31.68,77.28,14.67,67.46z"/>
	</g>
	
		<radialGradient id="SVGID_00000091734327563892441180000018182937812456701573_" cx="45.5408" cy="36.8668" r="39.4692" fx="23.9328" fy="31.4505" gradientTransform="matrix(1 0 0 0.9263 0 2.7164)" gradientUnits="userSpaceOnUse">
		<stop  offset="0" style="stop-color:#FFFF00"/>
		<stop  offset="1" style="stop-color:#8CC63F"/>
	</radialGradient>
	<path style="opacity:0.42;fill:url(#SVGID_00000091734327563892441180000018182937812456701573_);" d="M1.89,45.95
		c-0.16,6.59,4.08,13.21,12.74,18.21c17.01,9.82,44.84,9.82,61.84,0c8.66-5,12.9-11.62,12.74-18.21h0.08
		C89.29,21.79,69.7,2.2,45.54,2.2C21.38,2.2,1.79,21.79,1.79,45.95H1.89z"/>
	<g>
		<path class="st9" d="M17.44,59.56c-3.5-1.97-6.36-0.32-6.36,3.67c0,3.99,2.87,8.87,6.37,10.84c3.5,1.97,6.36,0.32,6.36-3.67
			C23.8,66.41,20.94,61.53,17.44,59.56z"/>
		<path class="st9" d="M17.44,59.56c-3.5-1.97-6.36-0.32-6.36,3.67c0,3.99,2.87,8.87,6.37,10.84c3.5,1.97,6.36,0.32,6.36-3.67
			C23.8,66.41,20.94,61.53,17.44,59.56z"/>
	</g>
	<g class="st11">
		<path d="M16.95,63.35c-1.93-1.09-3.51-0.18-3.51,2.03c0,2.2,1.58,4.9,3.51,5.99c1.93,1.09,3.51,0.18,3.51-2.03
			C20.46,67.14,18.88,64.44,16.95,63.35z"/>
		<path d="M16.95,63.35c-1.93-1.09-3.51-0.18-3.51,2.03c0,2.2,1.58,4.9,3.51,5.99c1.93,1.09,3.51,0.18,3.51-2.03
			C20.46,67.14,18.88,64.44,16.95,63.35z"/>
	</g>
	<g>
		<path class="st12" d="M15.36,64.39c-1.93-1.09-3.51-0.18-3.51,2.03s1.58,4.9,3.51,5.99c1.93,1.09,3.51,0.18,3.51-2.03
			C18.88,68.17,17.29,65.48,15.36,64.39z"/>
		<path class="st15" d="M15.36,64.39c-1.93-1.09-3.51-0.18-3.51,2.03s1.58,4.9,3.51,5.99c1.93,1.09,3.51,0.18,3.51-2.03
			C18.88,68.17,17.29,65.48,15.36,64.39z"/>
	</g>
	<path class="st12" d="M15.36,65.31c-1.93-1.09-3.51-1.1-3.51,1.1s1.58,4.9,3.51,5.99c1.93,1.09,3.51,0.18,3.51-2.03
		C18.88,68.16,17.3,66.39,15.36,65.31z"/>
</g>
<g id="Layer_3">
</g>
</svg>
