<svg xmlns="http://www.w3.org/2000/svg" viewBox="0 0 159.25 157.56"><defs><style>.cls-1,.cls-2{fill:#fc0;}.cls-1{opacity:0.25;}.cls-2{opacity:0.66;}</style></defs><g id="Layer_4" data-name="Layer 4"><polygon class="cls-1" points="78.86 -0.61 89.1 40.28 118.41 9.98 106.82 50.51 147.35 38.93 117.06 68.24 157.95 78.47 117.06 88.71 147.35 118.02 106.82 106.44 118.41 146.97 89.1 116.67 78.86 157.56 68.63 116.67 39.32 146.97 50.9 106.44 10.37 118.02 40.67 88.71 -0.22 78.47 40.67 68.24 10.37 38.93 50.9 50.51 39.32 9.98 68.63 40.28 78.86 -0.61"/><polygon class="cls-2" points="78.86 14.71 87.11 47.68 110.74 23.25 101.41 55.93 134.08 46.59 109.66 70.22 142.63 78.47 109.66 86.73 134.08 110.36 101.41 101.02 110.74 133.7 87.11 109.27 78.86 142.24 70.61 109.27 46.98 133.7 56.32 101.02 23.64 110.36 48.07 86.73 15.1 78.47 48.07 70.22 23.64 46.59 56.32 55.93 46.98 23.25 70.61 47.68 78.86 14.71"/></g></svg>